<svg id="Capa_1" enable-background="new 0 0 512 512" height="512" viewBox="0 0 512 512" width="512" xmlns="http://www.w3.org/2000/svg"><g><g><path d="m75.671 512h-61.717c-5.605 0-10.149-4.544-10.149-10.149v-145.781c0-5.605 4.544-10.149 10.149-10.149h71.866v155.93c0 5.605-4.544 10.149-10.149 10.149z" fill="#62b4fd"/><path d="m65.317 345.921v135.324c0 5.662-4.59 10.252-10.252 10.252h-51.259v10.355c0 5.605 4.544 10.149 10.149 10.149h61.717c5.605 0 10.149-4.544 10.149-10.149v-155.93h-20.504z" fill="#27a2fb"/><path d="m295.392 367.45c15.57 0 28.192-12.622 28.192-28.192 0-15.57-12.622-28.192-28.192-28.192h-95.777c-8.275 0-16.426 2.003-23.758 5.839l-44.313 23.179c-7.332 3.835-15.484 5.839-23.758 5.839h-21.966v138.397h82.761c8.305 0 16.58-1.009 24.641-3.005l173.547-42.973c19.318-4.783 36.825-15.086 50.387-29.65l83.455-89.425c10.376-11.144 10.067-28.502-.7-39.269-11.4-11.4-29.811-11.125-40.771.512l-82.26 83.897c-1.909 1.947-4.52 3.044-7.247 3.044h-74.241z" fill="#fcd0a3"/><path d="m295.392 351.303h-89.831c-4.459 0-8.073 3.615-8.073 8.073 0 4.459 3.615 8.073 8.073 8.073h89.831c15.57 0 28.192-12.622 28.192-28.192 0-2.807-.416-5.515-1.179-8.073-3.472 11.635-14.249 20.119-27.013 20.119z" fill="#ffb983"/><path d="m499.911 279.997c-.788-.788-1.612-1.514-2.463-2.191 1.455 8.424-.912 17.392-7.163 24.105l-83.455 89.425c-13.562 14.565-31.069 24.867-50.387 29.651l-173.546 42.973c-8.062 1.996-16.336 3.005-24.641 3.005h-72.436v17.355h82.761c8.305 0 16.58-1.009 24.641-3.005l173.547-42.973c19.318-4.783 36.825-15.086 50.387-29.65l83.455-89.425c10.376-11.145 10.067-28.503-.7-39.27z" fill="#ffb983"/><circle cx="44.813" cy="401.281" fill="#fcee56" r="13.327"/></g><g><circle cx="256" cy="173.691" fill="#fce25c" r="92.266"/><path d="m314.236 102.128c12.94 15.883 20.703 36.151 20.703 58.236 0 50.957-41.309 92.266-92.266 92.266-22.084 0-42.353-7.763-58.236-20.703 16.918 20.765 42.69 34.031 71.563 34.031 50.957 0 92.266-41.309 92.266-92.266 0-28.874-13.265-54.646-34.03-71.564z" fill="#fbd307"/></g><g fill="#f9c301"><path d="m221.216 128.666c1.41 2.442 3.968 3.807 6.599 3.807 1.291 0 2.601-.329 3.799-1.021 3.641-2.102 4.888-6.757 2.786-10.397l-17.792-30.815c-4.615 2.183-9.02 4.737-13.176 7.624z"/><path d="m256 124.917c4.204 0 7.612-3.408 7.612-7.611v-35.567c-2.511-.205-5.048-.315-7.612-.315-2.563 0-5.101.11-7.611.315v35.567c0 4.203 3.407 7.611 7.611 7.611z"/><path d="m304.773 173.691c0 4.204 3.407 7.611 7.612 7.611h35.567c.205-2.511.314-5.048.314-7.612 0-2.563-.11-5.101-.314-7.611h-35.567c-4.205 0-7.612 3.408-7.612 7.612z"/><path d="m172.548 134.298 30.816 17.791c1.199.692 2.507 1.021 3.799 1.021 2.63 0 5.189-1.366 6.599-3.807 2.102-3.641.855-8.296-2.786-10.397l-30.803-17.784c-2.888 4.157-5.443 8.561-7.625 13.176z"/><path d="m295.392 90.238-17.791 30.816c-2.102 3.641-.854 8.296 2.786 10.397 1.199.692 2.507 1.021 3.799 1.021 2.63 0 5.189-1.366 6.599-3.807l17.784-30.803c-4.157-2.887-8.562-5.441-13.177-7.624z"/><path d="m298.239 149.304c1.409 2.442 3.968 3.807 6.599 3.807 1.291 0 2.601-.329 3.799-1.021l30.816-17.791c-2.182-4.615-4.737-9.02-7.624-13.176l-30.803 17.784c-3.641 2.101-4.889 6.756-2.787 10.397z"/><path d="m210.975 208.475c3.641-2.102 4.888-6.757 2.786-10.397s-6.758-4.889-10.397-2.786l-30.816 17.791c2.182 4.615 4.737 9.02 7.624 13.176z"/><path d="m339.452 213.083-30.816-17.791c-3.642-2.103-8.296-.855-10.397 2.786-2.102 3.641-.854 8.296 2.786 10.397l30.804 17.784c2.886-4.157 5.441-8.561 7.623-13.176z"/><path d="m290.784 218.716c-2.101-3.641-6.758-4.888-10.397-2.786-3.64 2.102-4.888 6.757-2.786 10.397l17.791 30.816c4.615-2.182 9.02-4.737 13.176-7.624z"/><path d="m216.608 257.143 17.792-30.816c2.102-3.64.855-8.295-2.786-10.397-3.64-2.103-8.296-.855-10.397 2.786l-17.785 30.803c4.156 2.887 8.56 5.441 13.176 7.624z"/><path d="m164.048 181.302h35.567c4.204 0 7.611-3.408 7.611-7.611 0-4.204-3.408-7.611-7.611-7.611h-35.567c-.205 2.51-.315 5.048-.315 7.611.001 2.563.11 5.101.315 7.611z"/><path d="m263.612 265.642v-35.567c0-4.204-3.407-7.611-7.612-7.611-4.204 0-7.611 3.408-7.611 7.611v35.567c2.511.205 5.048.315 7.611.315s5.101-.11 7.612-.315z"/></g><circle cx="256" cy="173.691" fill="#f9c301" r="56.385"/><g><path d="m256 56.23c-4.204 0-7.611-3.408-7.611-7.611v-41.008c0-4.203 3.407-7.611 7.611-7.611s7.612 3.408 7.612 7.611v41.007c0 4.205-3.408 7.612-7.612 7.612z" fill="#f9c301"/></g><g><path d="m292.907 67.507c-4.204 0-7.611-3.408-7.611-7.611v-30.756c0-4.204 3.407-7.611 7.611-7.611s7.612 3.408 7.612 7.611v30.755c-.001 4.204-3.408 7.612-7.612 7.612z" fill="#f9c301"/></g><g><path d="m219.094 67.507c-4.204 0-7.611-3.408-7.611-7.611v-30.756c0-4.204 3.408-7.611 7.611-7.611 4.204 0 7.611 3.408 7.611 7.611v30.755c0 4.204-3.408 7.612-7.611 7.612z" fill="#f9c301"/></g></g></svg>