<svg id="Capa_1" enable-background="new 0 0 512 512" height="512" viewBox="0 0 512 512" width="512" xmlns="http://www.w3.org/2000/svg"><g><path d="m256 0-192.529 256 192.529 256c141.385 0 256-114.615 256-256s-114.615-256-256-256z" fill="#ffd959"/><path d="m0 256c0 141.385 114.615 256 256 256v-512c-141.385 0-256 114.615-256 256z" fill="#ffeaa6"/><path d="m90 181h30v30h-30z" fill="#ffd959"/><path d="m392 181h30v30h-30z" fill="#ffc40f" transform="matrix(-1 0 0 -1 814 392)"/><path d="m293 121v60c0 16.569 13.431 30 30 30s30-13.431 30-30v-60c0-16.569-13.431-30-30-30s-30 13.431-30 30z" fill="#414851"/><path d="m219 121v60c0 16.569-13.431 30-30 30s-30-13.431-30-30v-60c0-16.569 13.431-30 30-30s30 13.431 30 30z" fill="#62676f"/><path d="m410.816 316c7.217-18.61 11.184-38.841 11.184-60h-166l-60 120z" fill="#fff7e0"/><path d="m256 256h-166c0 21.159 3.967 41.39 11.184 60l154.816 60z" fill="#fff"/><path d="m256 316-60 53 60 53c70.52 0 130.761-43.978 154.816-106z" fill="#ff5253"/><path d="m101.184 316c24.055 62.022 84.296 106 154.816 106v-106z" fill="#ff7b6b"/></g></svg>