<svg
              xmlns="http://www.w3.org/2000/svg"
              xmlns:xlink="http://www.w3.org/1999/xlink"
              version="1.1"
              x="0px"
              y="0px"
              viewBox="0 0 100 100"
              style="enable-background:new 0 0 100 100;"
              xml:space="preserve"
            >
              <g>
                <path d="M35.7,50.3c0-4.7-3.7-8.3-8.3-8.3S19,45.7,19,50.3s3.7,8.3,8.3,8.3C31.7,58.7,35.7,55,35.7,50.3z M27.3,54.7   c-2.3,0-4.3-2-4.3-4.3s2-4.3,4.3-4.3s4.3,2,4.3,4.3C31.7,52.7,29.7,54.7,27.3,54.7z"></path>
                <path d="M72.7,42c-4.7,0-8.3,3.7-8.3,8.3s3.7,8.3,8.3,8.3S81,55,81,50.3S77.3,42,72.7,42z M72.7,54.7c-2.3,0-4.3-2-4.3-4.3   s2-4.3,4.3-4.3s4.3,2,4.3,4.3S75.3,54.7,72.7,54.7z"></path>
                <path d="M58,74.7c-3.3,0-6-2.7-6-6h-4c0,3.3-2.7,6-6,6s-6-2.7-6-6h-4.3c0,5.7,4.7,10,10,10c3.3,0,6.3-1.7,8-4.3   c2,2.7,4.7,4.3,8,4.3c5.7,0,10-4.7,10-10h-4C64.3,71.7,61.7,74.7,58,74.7z"></path>
                <path d="M100,10c0-6-5-10-10-10c-2.3,0-5,1-7,3l-5.3,5.3C69.7,3,60.3,0,50,0S30.3,3,22.3,8.3L17,3c-2-2-4.3-3-7-3C5,0,0,4,0,10   v39.7l0,0c0,0,0,0,0,0.3c0,27.7,22.3,50,50,50s50-22.3,50-50c0,0,0,0,0-0.3l0,0V10z M96,49.7L96,49.7c0,0.3,0,0.3,0,0.7   c0,25.3-20.7,46-46,46C24.7,96,4,75.3,4,50v-0.3c0,0,0,0,0-0.3V10c0-2.3,1-3.7,2-4.3C7,4.7,8.7,4,10,4c1,0,2.7,0.3,4.3,1.7l5.3,5.3   c0.7,0.7,1.7,1.3,2.7,1.3c0.7,0,1.7-0.3,2.3-0.7C32.3,6.7,41,4,50,4s17.7,2.7,25.3,7.7c0.7,0.3,1.3,0.7,2.3,0.7s2-0.3,2.7-1.3   l5.3-5.3C87,4.3,88.7,4,90,4c3,0,6,2.3,6,6V49.7z"></path>
              </g>
            </svg>